<svg width="100" height="17" viewBox="0 0 100 17" fill="none" xmlns="http://www.w3.org/2000/svg">
<path fill-rule="evenodd" clip-rule="evenodd" d="M7.99556 1.99988C8.12244 1.99988 8.23832 2.07191 8.29447 2.18569L10.2742 6.19714L14.7007 6.83866C14.8263 6.85687 14.9307 6.94485 14.9699 7.06559C15.0091 7.18633 14.9764 7.31886 14.8854 7.4074L11.6777 10.5297L12.4341 14.9389C12.4556 15.064 12.4041 15.1904 12.3014 15.265C12.1986 15.3395 12.0625 15.3493 11.9502 15.2901L8.00005 13.2086L4.04068 15.2903C3.92837 15.3493 3.79228 15.3395 3.68963 15.2649C3.58698 15.1903 3.53557 15.0639 3.55702 14.9389L4.31337 10.5297L1.10572 7.4074C1.01476 7.31886 0.981982 7.18633 1.02119 7.06559C1.0604 6.94485 1.16478 6.85687 1.29042 6.83866L5.7169 6.19714L7.69665 2.18569C7.7528 2.07191 7.86868 1.99988 7.99556 1.99988Z" fill="#FEC110" stroke="#FEC110" stroke-linecap="round" stroke-linejoin="round"/>
<path fill-rule="evenodd" clip-rule="evenodd" d="M28.9956 1.99988C29.1224 1.99988 29.2383 2.07191 29.2945 2.18569L31.2742 6.19714L35.7007 6.83866C35.8263 6.85687 35.9307 6.94485 35.9699 7.06559C36.0091 7.18633 35.9764 7.31886 35.8854 7.4074L32.6777 10.5297L33.4341 14.9389C33.4556 15.064 33.4041 15.1904 33.3014 15.265C33.1986 15.3395 33.0625 15.3493 32.9502 15.2901L29 13.2086L25.0407 15.2903C24.9284 15.3493 24.7923 15.3395 24.6896 15.2649C24.587 15.1903 24.5356 15.0639 24.557 14.9389L25.3134 10.5297L22.1057 7.4074C22.0148 7.31886 21.982 7.18633 22.0212 7.06559C22.0604 6.94485 22.1648 6.85687 22.2904 6.83866L26.7169 6.19714L28.6966 2.18569C28.7528 2.07191 28.8687 1.99988 28.9956 1.99988Z" fill="#FEC110" stroke="#FEC110" stroke-linecap="round" stroke-linejoin="round"/>
<path fill-rule="evenodd" clip-rule="evenodd" d="M49.9956 1.99988C50.1224 1.99988 50.2383 2.07191 50.2945 2.18569L52.2742 6.19714L56.7007 6.83866C56.8263 6.85687 56.9307 6.94485 56.9699 7.06559C57.0091 7.18633 56.9764 7.31886 56.8854 7.4074L53.6777 10.5297L54.4341 14.9389C54.4556 15.064 54.4041 15.1904 54.3014 15.265C54.1986 15.3395 54.0625 15.3493 53.9502 15.2901L50 13.2086L46.0407 15.2903C45.9284 15.3493 45.7923 15.3395 45.6896 15.2649C45.587 15.1903 45.5356 15.0639 45.557 14.9389L46.3134 10.5297L43.1057 7.4074C43.0148 7.31886 42.982 7.18633 43.0212 7.06559C43.0604 6.94485 43.1648 6.85687 43.2904 6.83866L47.7169 6.19714L49.6966 2.18569C49.7528 2.07191 49.8687 1.99988 49.9956 1.99988Z" fill="#FEC110" stroke="#FEC110" stroke-linecap="round" stroke-linejoin="round"/>
<path fill-rule="evenodd" clip-rule="evenodd" d="M70.9956 1.99988C71.1224 1.99988 71.2383 2.07191 71.2945 2.18569L73.2742 6.19714L77.7007 6.83866C77.8263 6.85687 77.9307 6.94485 77.9699 7.06559C78.0091 7.18633 77.9764 7.31886 77.8854 7.4074L74.6777 10.5297L75.4341 14.9389C75.4556 15.064 75.4041 15.1904 75.3014 15.265C75.1986 15.3395 75.0625 15.3493 74.9502 15.2901L71 13.2086L67.0407 15.2903C66.9284 15.3493 66.7923 15.3395 66.6896 15.2649C66.587 15.1903 66.5356 15.0639 66.557 14.9389L67.3134 10.5297L64.1057 7.4074C64.0148 7.31886 63.982 7.18633 64.0212 7.06559C64.0604 6.94485 64.1648 6.85687 64.2904 6.83866L68.7169 6.19714L70.6966 2.18569C70.7528 2.07191 70.8687 1.99988 70.9956 1.99988Z" fill="#FEC110" stroke="#FEC110" stroke-linecap="round" stroke-linejoin="round"/>
<path fill-rule="evenodd" clip-rule="evenodd" d="M91.9956 1.99988C92.1224 1.99988 92.2383 2.07191 92.2945 2.18569L94.2742 6.19714L98.7007 6.83866C98.8263 6.85687 98.9307 6.94485 98.9699 7.06559C99.0091 7.18633 98.9764 7.31886 98.8854 7.4074L95.6777 10.5297L96.4341 14.9389C96.4556 15.064 96.4041 15.1904 96.3014 15.265C96.1986 15.3395 96.0625 15.3493 95.9502 15.2901L92 13.2086L88.0407 15.2903C87.9284 15.3493 87.7923 15.3395 87.6896 15.2649C87.587 15.1903 87.5356 15.0639 87.557 14.9389L88.3134 10.5297L85.1057 7.4074C85.0148 7.31886 84.982 7.18633 85.0212 7.06559C85.0604 6.94485 85.1648 6.85687 85.2904 6.83866L89.7169 6.19714L91.6966 2.18569C91.7528 2.07191 91.8687 1.99988 91.9956 1.99988Z" fill="#FEC110" stroke="#FEC110" stroke-linecap="round" stroke-linejoin="round"/>
</svg>
